<svg width="7" height="13" viewBox="0 0 7 13" fill="none" xmlns="http://www.w3.org/2000/svg">
<path d="M0.575915 1.30438C0.523288 1.24471 0.482146 1.17452 0.454837 1.09781C0.427528 1.02111 0.414587 0.939389 0.416753 0.857325C0.41892 0.775262 0.436152 0.694459 0.467464 0.61953C0.498777 0.544601 0.543557 0.477014 0.599249 0.420628C0.65494 0.364242 0.720452 0.32016 0.792044 0.290901C0.863636 0.261641 0.939905 0.247776 1.0165 0.250097C1.09309 0.252419 1.16851 0.270881 1.23844 0.30443C1.30837 0.33798 1.37146 0.385959 1.42408 0.445628L6.38242 6.07063C6.48481 6.18667 6.54187 6.34031 6.54187 6.5C6.54187 6.6597 6.48481 6.81333 6.38242 6.92938L1.42408 12.555C1.3718 12.616 1.30874 12.6652 1.23854 12.6999C1.16835 12.7345 1.09244 12.7538 1.01521 12.7568C0.937979 12.7597 0.860973 12.7462 0.788665 12.717C0.716357 12.6878 0.650188 12.6434 0.594001 12.5866C0.537814 12.5298 0.492729 12.4615 0.461365 12.3858C0.430001 12.3102 0.412984 12.2286 0.411302 12.1458C0.409619 12.063 0.423304 11.9807 0.451563 11.9036C0.479822 11.8266 0.522092 11.7563 0.575915 11.6969L5.15625 6.5L0.575915 1.30438Z" fill="black"/>
</svg>
