<svg width="32" height="30" viewBox="0 0 32 30" fill="none" xmlns="http://www.w3.org/2000/svg">
<path d="M16 29.43C15.779 29.4293 15.5645 29.3555 15.39 29.22C9.82999 24.9 5.99999 21.18 3.31999 17.51C-0.100011 12.82 -0.880011 8.49001 0.999989 4.64001C2.33999 1.89001 6.18999 -0.359991 10.69 0.950009C12.8355 1.56975 14.7075 2.89879 16 4.72001C17.2925 2.89879 19.1644 1.56975 21.31 0.950009C25.8 -0.339991 29.66 1.89001 31 4.64001C32.88 8.49001 32.1 12.82 28.68 17.51C26 21.18 22.17 24.9 16.61 29.22C16.4354 29.3555 16.2209 29.4293 16 29.43ZM8.12999 2.58001C7.05924 2.53834 5.99736 2.78906 5.05833 3.30526C4.11931 3.82146 3.33859 4.58365 2.79999 5.51001C1.24999 8.69001 1.94999 12.23 4.93999 16.32C8.11756 20.4186 11.8384 24.0654 16 27.16C20.1609 24.0685 23.8817 20.4251 27.06 16.33C30.06 12.23 30.75 8.69001 29.2 5.52001C28.2 3.52001 25.2 1.93001 21.86 2.87001C20.789 3.18651 19.7962 3.72373 18.9454 4.44708C18.0946 5.17044 17.4047 6.06392 16.92 7.07001C16.8446 7.25342 16.7165 7.41029 16.5518 7.52069C16.3871 7.6311 16.1933 7.69004 15.995 7.69004C15.7967 7.69004 15.6029 7.6311 15.4382 7.52069C15.2735 7.41029 15.1453 7.25342 15.07 7.07001C14.589 6.0614 13.9002 5.16584 13.0489 4.44203C12.1975 3.71822 11.2028 3.18251 10.13 2.87001C9.47997 2.68121 8.80687 2.58361 8.12999 2.58001Z" fill="black"/>
</svg>
